<svg version="1.1" preserveAspectRatio="none" xmlns="http://www.w3.org/2000/svg" width="500" height="500" viewBox="0 0 500 500"><rect width="100%" height="100%" fill="#5CB8FF" fill-opacity="1"/><svg viewBox="569.0188 480.1294 359.321 247.4101" width="333" height="229.28680288655545" x="83.5px" y="135.3566px" xmlns="http://www.w3.org/2000/svg" xmlns:xlink="http://www.w3.org/1999/xlink" preserveAspectRatio="none"><defs></defs><style>.companyName {fill:#FFFFFF;fill-opacity:1;}.icon1 {fill:#005477;fill-opacity:1;}.icon2 {fill:#FFFFFF;fill-opacity:1;}.icon3 {fill:#0017EB;fill-opacity:1;}.icon3-str {stroke:#0017EB;stroke-opacity:1;}.text {fill:#FFFFFF;fill-opacity:1;}</style><g opacity="1" transform="rotate(0 626.254 702.7395)">
<svg width="244.8507" height="24.8" x="626.254" y="702.7395" version="1.1" preserveAspectRatio="none" viewBox="3.32 -31.48 390.52000000000004 39.56">
  <g transform="matrix(1 0 0 1 0 0)" class="text"><path id="id-6izo4zJp17" d="M28.12 0L21.16 0L15.76-7.80L15.44-7.80L9.80-7.80L9.80 0L3.32 0L3.32-28L15.44-28Q19.16-28 21.90-26.76Q24.64-25.52 26.12-23.24Q27.60-20.96 27.60-17.84L27.60-17.84Q27.60-14.72 26.10-12.46Q24.60-10.20 21.84-9L21.84-9L28.12 0ZM21.04-17.84Q21.04-20.20 19.52-21.46Q18-22.72 15.08-22.72L15.08-22.72L9.80-22.72L9.80-12.96L15.08-12.96Q18-12.96 19.52-14.24Q21.04-15.52 21.04-17.84L21.04-17.84Z M54.96-10.68Q54.96-10.56 54.84-9L54.84-9L38.56-9Q39-7 40.64-5.84Q42.28-4.68 44.72-4.68L44.72-4.68Q46.40-4.68 47.70-5.18Q49-5.68 50.12-6.76L50.12-6.76L53.44-3.16Q50.40 0.32 44.56 0.32L44.56 0.32Q40.92 0.32 38.12-1.10Q35.32-2.52 33.80-5.04Q32.28-7.56 32.28-10.76L32.28-10.76Q32.28-13.92 33.78-16.46Q35.28-19 37.90-20.42Q40.52-21.84 43.76-21.84L43.76-21.84Q46.92-21.84 49.48-20.48Q52.04-19.12 53.50-16.58Q54.96-14.04 54.96-10.68L54.96-10.68ZM43.80-17.12Q41.68-17.12 40.24-15.92Q38.80-14.72 38.48-12.64L38.48-12.64L49.08-12.64Q48.76-14.68 47.32-15.90Q45.88-17.12 43.80-17.12L43.80-17.12Z M71.12 0.32Q67.68 0.32 64.94-1.10Q62.20-2.52 60.66-5.04Q59.12-7.56 59.12-10.76L59.12-10.76Q59.12-13.96 60.66-16.48Q62.20-19 64.94-20.42Q67.68-21.84 71.12-21.84L71.12-21.84Q74.52-21.84 77.06-20.42Q79.60-19 80.76-16.36L80.76-16.36L75.92-13.76Q74.24-16.72 71.08-16.72L71.08-16.72Q68.64-16.72 67.04-15.12Q65.44-13.52 65.44-10.76L65.44-10.76Q65.44-8 67.04-6.40Q68.64-4.80 71.08-4.80L71.08-4.80Q74.28-4.80 75.92-7.76L75.92-7.76L80.76-5.12Q79.60-2.56 77.06-1.12Q74.52 0.32 71.12 0.32L71.12 0.32Z M85.96 0L85.96-21.52L92.20-21.52L92.20 0L85.96 0ZM89.08-24.52Q87.36-24.52 86.28-25.52Q85.20-26.52 85.20-28L85.20-28Q85.20-29.48 86.28-30.48Q87.36-31.48 89.08-31.48L89.08-31.48Q90.80-31.48 91.88-30.52Q92.96-29.56 92.96-28.12L92.96-28.12Q92.96-26.56 91.88-25.54Q90.80-24.52 89.08-24.52L89.08-24.52Z M106.44-21.96L106.44-21.04L111.96-21.04L111.96-16.24L106.60-16.24L106.60 0L100.36 0L100.36-16.24L97.04-16.24L97.04-21.04L100.36-21.04L100.36-22Q100.36-25.68 102.54-27.84Q104.72-30 108.68-30L108.68-30Q110.08-30 111.34-29.70Q112.60-29.40 113.44-28.84L113.44-28.84L111.80-24.32Q110.72-25.08 109.28-25.08L109.28-25.08Q106.44-25.08 106.44-21.96L106.44-21.96Z M137.48-10.68Q137.48-10.56 137.36-9L137.36-9L121.08-9Q121.52-7 123.16-5.84Q124.80-4.68 127.24-4.68L127.24-4.68Q128.92-4.68 130.22-5.18Q131.52-5.68 132.64-6.76L132.64-6.76L135.96-3.16Q132.92 0.32 127.08 0.32L127.08 0.32Q123.44 0.32 120.64-1.10Q117.84-2.52 116.32-5.04Q114.80-7.56 114.80-10.76L114.80-10.76Q114.80-13.92 116.30-16.46Q117.80-19 120.42-20.42Q123.04-21.84 126.28-21.84L126.28-21.84Q129.44-21.84 132-20.48Q134.56-19.12 136.02-16.58Q137.48-14.04 137.48-10.68L137.48-10.68ZM126.32-17.12Q124.20-17.12 122.76-15.92Q121.32-14.72 121.00-12.64L121.00-12.64L131.60-12.64Q131.28-14.68 129.84-15.90Q128.40-17.12 126.32-17.12L126.32-17.12Z M168.88-21.84Q171.88-21.84 174.34-20.46Q176.80-19.08 178.20-16.58Q179.60-14.08 179.60-10.76L179.60-10.76Q179.60-7.44 178.20-4.94Q176.80-2.44 174.34-1.06Q171.88 0.32 168.88 0.32L168.88 0.32Q164.44 0.32 162.12-2.48L162.12-2.48L162.12 0L156.16 0L156.16-29.68L162.40-29.68L162.40-19.24Q164.76-21.84 168.88-21.84L168.88-21.84ZM167.80-4.80Q170.20-4.80 171.74-6.42Q173.28-8.04 173.28-10.76L173.28-10.76Q173.28-13.48 171.74-15.10Q170.20-16.72 167.80-16.72L167.80-16.72Q165.40-16.72 163.86-15.10Q162.32-13.48 162.32-10.76L162.32-10.76Q162.32-8.04 163.86-6.42Q165.40-4.80 167.80-4.80L167.80-4.80Z M195.60 0.32Q192.20 0.32 189.50-1.10Q186.80-2.52 185.28-5.04Q183.76-7.56 183.76-10.76L183.76-10.76Q183.76-13.96 185.28-16.48Q186.80-19 189.50-20.42Q192.20-21.84 195.60-21.84L195.60-21.84Q199-21.84 201.68-20.42Q204.36-19 205.88-16.48Q207.40-13.96 207.40-10.76L207.40-10.76Q207.40-7.56 205.88-5.04Q204.36-2.52 201.68-1.10Q199 0.32 195.60 0.32L195.60 0.32ZM195.60-4.80Q198-4.80 199.54-6.42Q201.08-8.04 201.08-10.76L201.08-10.76Q201.08-13.48 199.54-15.10Q198-16.72 195.60-16.72L195.60-16.72Q193.20-16.72 191.64-15.10Q190.08-13.48 190.08-10.76L190.08-10.76Q190.08-8.04 191.64-6.42Q193.20-4.80 195.60-4.80L195.60-4.80Z M240.72-21.84Q244.76-21.84 247.14-19.46Q249.52-17.08 249.52-12.32L249.52-12.32L249.52 0L243.28 0L243.28-11.36Q243.28-13.92 242.22-15.18Q241.16-16.44 239.20-16.44L239.20-16.44Q237.00-16.44 235.72-15.02Q234.44-13.60 234.44-10.80L234.44-10.80L234.44 0L228.20 0L228.20-11.36Q228.20-16.44 224.12-16.44L224.12-16.44Q221.96-16.44 220.68-15.02Q219.40-13.60 219.40-10.80L219.40-10.80L219.40 0L213.16 0L213.16-21.52L219.12-21.52L219.12-19.04Q220.32-20.40 222.06-21.12Q223.80-21.84 225.88-21.84L225.88-21.84Q228.16-21.84 230.00-20.94Q231.84-20.04 232.96-18.32L232.96-18.32Q234.28-20 236.30-20.92Q238.32-21.84 240.72-21.84L240.72-21.84Z M269.64 0L269.64-29.68L275.88-29.68L275.88 0L269.64 0Z M298.72-21.52L304.96-21.52L304.96 0L299.04 0L299.04-2.56Q297.80-1.16 296.08-0.42Q294.36 0.32 292.36 0.32L292.36 0.32Q288.12 0.32 285.64-2.12Q283.16-4.56 283.16-9.36L283.16-9.36L283.16-21.52L289.40-21.52L289.40-10.28Q289.40-5.08 293.76-5.08L293.76-5.08Q296.00-5.08 297.36-6.54Q298.72-8 298.72-10.88L298.72-10.88L298.72-21.52Z M328.64-21.52L334.56-21.52L334.56-3.60Q334.56 2.32 331.48 5.20Q328.40 8.08 322.48 8.08L322.48 8.08Q319.36 8.08 316.56 7.32Q313.76 6.56 311.92 5.12L311.92 5.12L314.40 0.64Q315.76 1.76 317.84 2.42Q319.92 3.08 322.00 3.08L322.00 3.08Q325.24 3.08 326.78 1.62Q328.32 0.16 328.32-2.80L328.32-2.80L328.32-3.72Q325.88-1.04 321.52-1.04L321.52-1.04Q318.56-1.04 316.10-2.34Q313.64-3.64 312.20-6Q310.76-8.36 310.76-11.44L310.76-11.44Q310.76-14.52 312.20-16.88Q313.64-19.24 316.10-20.54Q318.56-21.84 321.52-21.84L321.52-21.84Q326.20-21.84 328.64-18.76L328.64-18.76L328.64-21.52ZM322.76-6.16Q325.24-6.16 326.82-7.62Q328.40-9.08 328.40-11.44L328.40-11.44Q328.40-13.80 326.82-15.26Q325.24-16.72 322.76-16.72L322.76-16.72Q320.28-16.72 318.68-15.26Q317.08-13.80 317.08-11.44L317.08-11.44Q317.08-9.08 318.68-7.62Q320.28-6.16 322.76-6.16L322.76-6.16Z M350.64-21.84Q355.64-21.84 358.32-19.46Q361.00-17.08 361.00-12.28L361.00-12.28L361.00 0L355.16 0L355.16-2.68Q353.40 0.32 348.60 0.32L348.60 0.32Q346.12 0.32 344.30-0.52Q342.48-1.36 341.52-2.84Q340.56-4.32 340.56-6.20L340.56-6.20Q340.56-9.20 342.82-10.92Q345.08-12.64 349.80-12.64L349.80-12.64L354.76-12.64Q354.76-14.68 353.52-15.78Q352.28-16.88 349.80-16.88L349.80-16.88Q348.08-16.88 346.42-16.34Q344.76-15.80 343.60-14.88L343.60-14.88L341.36-19.24Q343.12-20.48 345.58-21.16Q348.04-21.84 350.64-21.84L350.64-21.84ZM350.16-3.88Q351.76-3.88 353.00-4.62Q354.24-5.36 354.76-6.80L354.76-6.80L354.76-9L350.48-9Q346.64-9 346.64-6.48L346.64-6.48Q346.64-5.28 347.58-4.58Q348.52-3.88 350.16-3.88L350.16-3.88Z M374.20-18.68Q375.32-20.24 377.22-21.04Q379.12-21.84 381.60-21.84L381.60-21.84L381.60-16.08Q380.56-16.16 380.20-16.16L380.20-16.16Q377.52-16.16 376.00-14.66Q374.48-13.16 374.48-10.16L374.48-10.16L374.48 0L368.24 0L368.24-21.52L374.20-21.52L374.20-18.68Z M387.52-9.72L386.28-28L393.72-28L392.48-9.72L387.52-9.72ZM390.00 0.32Q388.36 0.32 387.26-0.74Q386.16-1.80 386.16-3.32L386.16-3.32Q386.16-4.84 387.24-5.86Q388.32-6.88 390.00-6.88L390.00-6.88Q391.68-6.88 392.76-5.86Q393.84-4.84 393.84-3.32L393.84-3.32Q393.84-1.80 392.74-0.74Q391.64 0.32 390.00 0.32L390.00 0.32Z"/></g>
</svg>
</g><g opacity="1" transform="rotate(0 569.0188 600.7395)">
<svg width="359.321" height="80" x="569.0188" y="600.7395" version="1.1" preserveAspectRatio="none" viewBox="0.6 -30.92 179.48000000000002 39.96000000000001">
  <g transform="matrix(1 0 0 1 0 0)" class="companyName"><path id="id-D6z1nYkh9" d="M22.84-20.60L22.84-20.60Q24.92-19.36 24.92-17.96L24.92-17.96Q24.92-17.16 24.12-15.76L24.12-15.76L15.84-1.56Q15.44-0.88 14.56-0.34Q13.68 0.20 12.82 0.20Q11.96 0.20 11.18-0.22Q10.40-0.64 10.08-1.08L10.08-1.08L9.72-1.52L1.40-15.76Q0.60-17.08 0.60-17.92L0.60-17.92Q0.60-19.36 2.68-20.60L2.68-20.60Q4.20-21.48 5.08-21.48Q5.96-21.48 6.46-20.94Q6.96-20.40 7.52-19.32L7.52-19.32L12.76-9.24L18-19.32Q18.44-20.08 18.66-20.42Q18.88-20.76 19.36-21.10Q19.84-21.44 20.64-21.44Q21.44-21.44 22.84-20.60Z M27.12-3.52L27.12-17.56Q27.12-18.48 27.18-18.94Q27.24-19.40 27.52-20L27.52-20Q28.08-21.04 30.64-21.04L30.64-21.04Q32.56-21.04 33.36-20.36L33.36-20.36Q34.04-19.80 34.08-18.64L34.08-18.64Q34.12-18.24 34.12-17.48L34.12-17.48L34.12-3.48Q34.12-2.56 34.06-2.10Q34-1.64 33.68-1.04L33.68-1.04Q33.16 0 30.60 0L30.60 0Q28.08 0 27.52-1.08L27.52-1.08Q27.24-1.68 27.18-2.12Q27.12-2.56 27.12-3.52L27.12-3.52ZM33.70-24.98Q33.40-24.40 32.64-24.16Q31.88-23.92 30.62-23.92Q29.36-23.92 28.60-24.16Q27.84-24.40 27.54-25Q27.24-25.60 27.18-26.06Q27.12-26.52 27.12-27.44Q27.12-28.36 27.18-28.82Q27.24-29.28 27.52-29.84L27.52-29.84Q28.08-30.92 30.64-30.92L30.64-30.92Q33.16-30.92 33.68-29.84L33.68-29.84Q34-29.24 34.06-28.78Q34.12-28.32 34.12-27.40Q34.12-26.48 34.06-26.02Q34-25.56 33.70-24.98Z M51-18.84L51-18.84Q51.24-21.08 54.16-21.08L54.16-21.08Q55.72-21.08 56.48-20.84Q57.24-20.60 57.54-20Q57.84-19.40 57.90-18.94Q57.96-18.48 57.96-17.56L57.96-17.56L57.96-3.56Q57.96-2.64 57.90-2.18Q57.84-1.72 57.56-1.12L57.56-1.12Q57-0.08 54.82-0.08Q52.64-0.08 51.90-0.62Q51.16-1.16 51.04-2.20L51.04-2.20Q49.56-0.08 46.10-0.08Q42.64-0.08 39.68-3.24Q36.72-6.40 36.72-10.58Q36.72-14.76 39.70-17.90Q42.68-21.04 46.24-21.04L46.24-21.04Q47.60-21.04 48.72-20.56Q49.84-20.08 50.28-19.66Q50.72-19.24 51-18.84ZM43.72-10.52Q43.72-9.20 44.76-8.14Q45.80-7.08 47.28-7.08Q48.76-7.08 49.74-8.16Q50.72-9.24 50.72-10.54Q50.72-11.84 49.78-12.96Q48.84-14.08 47.26-14.08Q45.68-14.08 44.70-12.96Q43.72-11.84 43.72-10.52Z M66.54-24.22Q65.80-24 64.56-24Q63.32-24 62.60-24.24Q61.88-24.48 61.58-25.06Q61.28-25.64 61.22-26.10Q61.16-26.56 61.16-27.48Q61.16-28.40 61.22-28.84Q61.28-29.28 61.56-29.84L61.56-29.84Q62.12-30.88 64.64-30.88L64.64-30.88Q67.04-30.88 67.64-29.84L67.64-29.84Q67.92-29.32 67.98-28.88Q68.04-28.44 68.04-27.56L68.04-27.56L68.04-27.32Q68.04-26.44 67.98-26Q67.92-25.56 67.60-25Q67.28-24.44 66.54-24.22ZM62.66-20.96Q63.40-21.20 64.64-21.20Q65.88-21.20 66.60-20.96Q67.32-20.72 67.62-20.14Q67.92-19.56 67.98-19.10Q68.04-18.64 68.04-17.72L68.04-17.72L68.04-1.24Q68.04 3.44 64.80 6.24Q61.56 9.04 57.68 9.04L57.68 9.04Q56.76 9.04 56.32 8.98Q55.88 8.92 55.32 8.64L55.32 8.64Q54.28 8.08 54.28 5.72Q54.28 3.36 55.14 2.76Q56 2.16 57.46 2.16Q58.92 2.16 60.04 1.36Q61.16 0.56 61.16-1.52L61.16-1.52L61.16-18Q61.16-19.40 61.54-20.06Q61.92-20.72 62.66-20.96Z M84.92-18.84L84.92-18.84Q85.16-21.08 88.08-21.08L88.08-21.08Q89.64-21.08 90.40-20.84Q91.16-20.60 91.46-20Q91.76-19.40 91.82-18.94Q91.88-18.48 91.88-17.56L91.88-17.56L91.88-3.56Q91.88-2.64 91.82-2.18Q91.76-1.72 91.48-1.12L91.48-1.12Q90.92-0.08 88.74-0.08Q86.56-0.08 85.82-0.62Q85.08-1.16 84.96-2.20L84.96-2.20Q83.48-0.08 80.02-0.08Q76.56-0.08 73.60-3.24Q70.64-6.40 70.64-10.58Q70.64-14.76 73.62-17.90Q76.60-21.04 80.16-21.04L80.16-21.04Q81.52-21.04 82.64-20.56Q83.76-20.08 84.20-19.66Q84.64-19.24 84.92-18.84ZM77.64-10.52Q77.64-9.20 78.68-8.14Q79.72-7.08 81.20-7.08Q82.68-7.08 83.66-8.16Q84.64-9.24 84.64-10.54Q84.64-11.84 83.70-12.96Q82.76-14.08 81.18-14.08Q79.60-14.08 78.62-12.96Q77.64-11.84 77.64-10.52Z M101.28-6.60L101.28-6.60Q101.96-5.92 101.96-3.80L101.96-3.80L101.96-3.64Q101.96-2.68 101.90-2.22Q101.84-1.76 101.48-1.12L101.48-1.12Q100.88 0.04 98.46 0.04Q96.04 0.04 95.26-0.72Q94.48-1.48 94.48-3.60L94.48-3.60L94.48-3.76Q94.48-4.68 94.54-5.16Q94.60-5.64 94.92-6.24L94.92-6.24Q95.52-7.44 97.94-7.44Q100.36-7.44 101.28-6.60Z M111.16-10.54Q111.16-8.84 112.28-7.90Q113.40-6.96 114.66-6.96Q115.92-6.96 117.02-7.70Q118.12-8.44 118.80-8.44L118.80-8.44Q120-8.44 121.72-6.32L121.72-6.32Q122.64-5.16 122.64-4.24L122.64-4.24Q122.64-2.72 120.44-1.40L120.44-1.40Q118.16 0.20 114.84 0.20L114.84 0.20Q111.12 0.20 107.68-2.48L107.68-2.48Q106.04-3.76 105.00-5.90Q103.96-8.04 103.96-10.62Q103.96-13.20 105.00-15.30Q106.04-17.40 107.68-18.68L107.68-18.68Q111.00-21.32 114.76-21.32L114.76-21.32Q116.28-21.32 117.72-20.90Q119.16-20.48 119.84-20.08L119.84-20.08L120.48-19.68Q121.20-19.20 121.60-18.92L121.60-18.92Q122.64-18.12 122.64-17.10Q122.64-16.08 121.80-14.80L121.80-14.80Q120.36-12.60 119.04-12.60L119.04-12.60Q118.28-12.60 116.88-13.48L116.88-13.48Q116.16-14.16 114.82-14.16Q113.48-14.16 112.32-13.20Q111.16-12.24 111.16-10.54Z M124.64-10.52Q124.64-15.32 128.00-18.44Q131.36-21.56 135.68-21.56Q140-21.56 143.32-18.46Q146.64-15.36 146.64-10.56L146.64-10.56Q146.64-7.24 144.92-4.66Q143.20-2.08 140.74-0.86Q138.28 0.36 135.64 0.36Q133 0.36 130.52-0.94Q128.04-2.24 126.34-4.78Q124.64-7.32 124.64-10.52L124.64-10.52ZM133-7.66Q134.28-6.68 135.60-6.68Q136.92-6.68 138.24-7.68Q139.56-8.68 139.56-10.64Q139.56-12.60 138.32-13.56Q137.08-14.52 135.64-14.52Q134.20-14.52 132.96-13.52Q131.72-12.52 131.72-10.58Q131.72-8.64 133-7.66Z M156.12-18.28L156.12-18.28Q158-21.12 160.64-21.12L160.64-21.12Q164.72-21.12 166.72-17.64L166.72-17.64Q167.16-18.24 167.78-18.90Q168.40-19.56 169.76-20.34Q171.12-21.12 172.56-21.12L172.56-21.12Q175.76-21.12 177.92-18.66Q180.08-16.20 180.08-10.52L180.08-10.52L180.08-3.52Q180.08-2.60 180.02-2.14Q179.96-1.68 179.64-1.08L179.64-1.08Q179.12 0 176.56 0L176.56 0Q174.04 0 173.48-1.12L173.48-1.12Q173.20-1.72 173.14-2.18Q173.08-2.64 173.08-3.56L173.08-3.56L173.08-10.56Q173.08-14.04 170.60-14.04L170.60-14.04Q169.20-14.04 168.70-13.12Q168.20-12.20 168.20-10.52L168.20-10.52L168.20-3.52Q168.20-2.56 168.14-2.12Q168.08-1.68 167.76-1.08L167.76-1.08Q167.20 0 164.64 0L164.64 0Q162.12 0 161.56-1.12L161.56-1.12Q161.28-1.72 161.22-2.18Q161.16-2.64 161.16-3.56L161.16-3.56L161.16-10.56Q161.16-14.04 158.68-14.04L158.68-14.04Q156.28-14.04 156.28-10.56L156.28-10.56L156.28-3.48Q156.28-2.56 156.22-2.10Q156.16-1.64 155.84-1.04L155.84-1.04Q155.24 0 152.72 0L152.72 0Q150.20 0 149.64-1.08L149.64-1.08Q149.36-1.68 149.30-2.12Q149.24-2.56 149.24-3.52L149.24-3.52L149.24-17.60Q149.24-18.52 149.30-18.98Q149.36-19.44 149.68-20L149.68-20Q150.28-21.08 152.52-21.08Q154.76-21.08 155.44-20.36Q156.12-19.64 156.12-18.28Z"/></g>
</svg>
</g><g opacity="1" transform="rotate(0 676.8151 480.1294)">
<svg width="143.7284" height="80.6101" x="676.8151" y="480.1294" version="1.1" preserveAspectRatio="none" viewBox="20 55.131996154785156 160.0006103515625 89.73633575439453">
  <g transform="matrix(1 0 0 1 0 0)"><g><path d="M48.152 138.543c-12-22.403-21.518-50.331-28.152-76.39 6.321 7.39 14.297 14.974 22.115 19.096 7.817 4.128 10.408 8.484 17.092 1.686 5.565-5.659 13.153-21.284 16.247-25.839 6.445 10.15 16.903 22.607 25.307 29.783 7.435-11.597 18.161-21.075 25.103-31.747 2.651 12.621 13.899 29.072 19.514 30.514 2.85.731 5.57-2.064 8.151-3.829 8.792-5.992 17.584-11.99 26.377-17.982 1.606 25.004-17.674 50.073-24.258 73.585-1.044 3.725-15.67 4.212-18.783 4.496-16.903 1.517-33.045.875-49.948 2.392-14.512 1.302-35.732.7-38.765-5.765" data-color="1" class="icon1"></path></g></g>
</svg>
</g></svg></svg>